<svg id="Layer_1" data-name="Layer 1" xmlns="http://www.w3.org/2000/svg" viewBox="0 0 21 22.04"><defs><style>.cls-1{fill:#81b3d2;fill-rule:evenodd;}</style></defs><title>calendar-active</title><path class="cls-1" d="M16.41,3h2.84A1.8,1.8,0,0,1,21,4.86v16.3A1.79,1.79,0,0,1,19.25,23H1.75A1.79,1.79,0,0,1,0,21.16V4.86A1.8,1.8,0,0,1,1.75,3H4.59V1.65a.66.66,0,1,1,1.32,0V3H9.84V1.65a.66.66,0,1,1,1.32,0V3h3.93V1.65a.66.66,0,1,1,1.32,0Zm3.15,18.46a.42.42,0,0,0,.13-.32h0V4.86a.45.45,0,0,0-.44-.46H16.41V5.78a.68.68,0,0,1-.66.69.67.67,0,0,1-.65-.69V4.4H11.16V5.78a.68.68,0,0,1-.66.69.67.67,0,0,1-.65-.69V4.4H5.91V5.78a.66.66,0,1,1-1.32,0V4.4H1.75a.45.45,0,0,0-.44.46v16.3a.45.45,0,0,0,.44.46h17.5A.41.41,0,0,0,19.56,21.48Z" transform="translate(0 -0.96)"/><path class="cls-1" d="M4.59,9.23H7.22v2.06H4.59Zm0,3.44H7.22v2.07H4.59Zm2.63,3.44H4.59v2.07H7.22Zm2,0h2.62v2.07H9.19Zm2.62-3.44H9.19v2.07h2.62ZM9.19,9.23h2.62v2.06H9.19Zm7.22,6.88H13.78v2.07h2.63Zm-2.63-3.44h2.63v2.07H13.78Zm2.63-3.44H13.78v2.06h2.63Z" transform="translate(0 -0.96)"/></svg>