<svg id="Layer_1" data-name="Layer 1" xmlns="http://www.w3.org/2000/svg" viewBox="0 0 113.98 39.78"><defs><style>.cls-1{fill:#81b3d2;fill-rule:evenodd;}</style></defs><title>logo-htmlacademy-hover</title><path class="cls-1" d="M15.52,1.06h-.17L0,2.72V31.49l15.35,9.35L30.7,31.49V2.72ZM77,2.62H75.09V15.73H77Zm-36.16,0V7.77a4,4,0,0,1,2.85-1.23,3.4,3.4,0,0,1,2.62,1,3.55,3.55,0,0,1,1,2.67v5.55h-2V10.47A2,2,0,0,0,45,9a1.88,1.88,0,0,0-1.29-.72h-.32a3.09,3.09,0,0,0-2.45,1.5v5.95h-2V2.63ZM77,31.48H75.28V30.06a4.07,4.07,0,0,1-3.37,1.66,4.75,4.75,0,0,1,0-9.47,4,4,0,0,1,3.17,1.4V18.32H77ZM47.07,30.06a2,2,0,0,0,.58-.11v1.44a3.33,3.33,0,0,1-1.25.22,1.75,1.75,0,0,1-1.76-1.08,5,5,0,0,1-3.31,1.17A2.77,2.77,0,0,1,38.26,29c0-2.3,2.11-3,3.91-3a11,11,0,0,1,2.29.27v-.33c0-1.07-.8-1.91-2.31-1.91a7.9,7.9,0,0,0-3.17.69V22.83a10.48,10.48,0,0,1,3.37-.59c2.49,0,4,1.21,4,3.94v3.23a.56.56,0,0,0,.13.43.58.58,0,0,0,.39.21h.18Zm-6.8-1.22a1.47,1.47,0,0,0,.5,1,1.38,1.38,0,0,0,1,.35h.12a3.55,3.55,0,0,0,2.54-1.08V27.58a10.27,10.27,0,0,0-1.91-.23c-1.05,0-2.28.36-2.28,1.49ZM56,22.94a5.05,5.05,0,0,0-2.71-.69h-.37a4.53,4.53,0,0,0-3.18,1.47,4.7,4.7,0,0,0-1.23,3.34v.44a4.49,4.49,0,0,0,4.72,4.23,6.38,6.38,0,0,0,2.91-.61V29.27A5.15,5.15,0,0,1,53.6,30a2.88,2.88,0,0,1-2.66-1.42,3,3,0,0,1,0-3.07A2.87,2.87,0,0,1,53.6,24a4.27,4.27,0,0,1,2.42.75Zm10.13,7.12a1.92,1.92,0,0,0,.58-.11v1.44a3.31,3.31,0,0,1-1.24.22,1.76,1.76,0,0,1-1.77-1.08,5,5,0,0,1-3.31,1.17A2.78,2.78,0,0,1,57.34,29c0-2.3,2.11-3,3.92-3a11.1,11.1,0,0,1,2.29.27v-.33c0-1.07-.81-1.91-2.32-1.91a7.85,7.85,0,0,0-3.16.69V22.83a10.43,10.43,0,0,1,3.37-.59c2.49,0,4,1.21,4,3.94v3.23a.59.59,0,0,0,.12.43.61.61,0,0,0,.39.21h.18Zm-6.3-.21a1.46,1.46,0,0,1-.49-1h0c0-1.13,1.16-1.49,2.28-1.49a10.27,10.27,0,0,1,1.91.23v1.53A3.57,3.57,0,0,1,61,30.19h-.11A1.47,1.47,0,0,1,59.85,29.85Zm9.48-2.92a3,3,0,0,1,2.91-3l0,.06a3.09,3.09,0,0,1,2.81,1.86V28a3,3,0,0,1-2.83,1.88A2.94,2.94,0,0,1,69.33,26.93Zm14-4.68c3.49,0,4.7,2.89,4.13,5.49H80.92c.22,1.62,1.76,2.28,3.37,2.28a6.4,6.4,0,0,0,2.78-.64v1.73a7.48,7.48,0,0,1-3.16.61c-2.67,0-5-1.53-5-4.77A4.59,4.59,0,0,1,80,23.68a4.36,4.36,0,0,1,3.08-1.46h.23Zm-2.48,3.93a2.42,2.42,0,0,1,2.57-2.27h0a2.06,2.06,0,0,1,1.67.62,2.21,2.21,0,0,1,.62,1.71H80.87Zm8.62,5.28v-9h1.74v1.08a4,4,0,0,1,2.93-1.38A3,3,0,0,1,97,23.72,4.29,4.29,0,0,1,100,22.28a3.19,3.19,0,0,1,2.49,1,3.34,3.34,0,0,1,.88,2.58v5.61h-2V25.93a1.71,1.71,0,0,0-.37-1.27A1.67,1.67,0,0,0,99.89,24h-.27a2.93,2.93,0,0,0-2.19,1.21v6.23h-2V25.93a1.75,1.75,0,0,0-.38-1.27,1.68,1.68,0,0,0-1.15-.61h-.21a3.12,3.12,0,0,0-2.33,1.39v6.08H89.53Zm24.49-9h-2l-2.65,6.8-3-6.78H104.2l4.22,9.06-.18.45c-.52,1.36-1.24,2-2.19,2a3,3,0,0,1-.89-.13v1.7a5.67,5.67,0,0,0,1.16.15c1.33,0,2.58-.75,3.53-3.09ZM52.69,6.79V3.55l-2,.46V6.73H49.14V8.49h1.65V13a2.74,2.74,0,0,0,.82,2.21,2.65,2.65,0,0,0,2.2.75,7.11,7.11,0,0,0,2.33-.38V13.84a4.57,4.57,0,0,1-1.78.36c-1.14,0-1.67-.39-1.67-1.58V8.51h3.16V6.79Zm5.7,9v-9h1.75V7.83a4,4,0,0,1,2.92-1.38A3,3,0,0,1,65.8,7.89a4.35,4.35,0,0,1,3.07-1.44,3.2,3.2,0,0,1,2.49,1,3.38,3.38,0,0,1,.85,2.62v5.62h-2V10.19a1.75,1.75,0,0,0-.36-1.27A1.65,1.65,0,0,0,68.7,8.3h-.24a2.9,2.9,0,0,0-2.18,1.21v6.23h-2V10.19a1.75,1.75,0,0,0-.36-1.27,1.65,1.65,0,0,0-1.13-.62h-.25A3.13,3.13,0,0,0,60.2,9.69v6.07H58.39ZM28.7,30.3h0v0Zm0-12v12L15.35,38.43,2,30.32V18.51l13.29,8.1V28l-9.11-5.5v1.41l9.16,5.62v1.5L6.19,25.5V27l9.16,5.62,9.23-5.65V20.81Zm0-1.54L25,18.94,23.35,20l-8-4.93V16.5l6.85,4.23-.15.09L21,21.41,15.29,18V19.4l4.47,2.72-1.05.72-3.38-2.05V22.2l2.22,1.34L15.3,24.9l-13.19-8,13.2-8.13ZM15.29,7.27l13.42,8.08V4.56L15.36,3.13,2,4.56V15.35Z" transform="translate(0 -1.06)"/></svg>