<svg id="Layer_1" data-name="Layer 1" xmlns="http://www.w3.org/2000/svg" viewBox="0 0 16.98 15.01"><defs><style>.cls-1{fill:#fff;opacity:0.3;}</style></defs><title>twitter-opacity</title><path class="cls-1" d="M11,1.14a3.12,3.12,0,0,1,3.58,1.18c.67-.23,1.33-.48,2-.7a2.36,2.36,0,0,1-.86,1.76A1.56,1.56,0,0,0,17,2.89a3,3,0,0,1-1.57,2C15.19,11.67,12.25,16.13,5.34,16H4.9c-.41,0-4.17-.46-4.9-1.89a6.1,6.1,0,0,0,4.69-1.18c-1-.3-2.68-.47-3-2.95a1.94,1.94,0,0,0,1.19.12C1.7,9.25.37,8.53.45,6.33a1.84,1.84,0,0,0,1.34.47c-.71-.24-2-3.36-.9-4.95C2.71,3.7,4.63,5.46,8.05,5.62,8.25,3.33,9.18,1.79,11,1.14Z" transform="translate(0 -0.99)"/></svg>